# xmcd CD database file
#
# Track frame offsets:
#	150
#	21179
#	35590
#	53250
#	63826
#	77820
#	85615
#	101056
#	109396
#	123495
#	133488
#	144628
#	159280
#	171714
#	183865
#	196486
#	207084
#	218701
#	231211
#	240300
#
# Disc length: 3394 seconds
#
# Revision: 0
# Processed by: cddbd v1.5.2PL0 Copyright (c) Steve Scherf et al.
# Submitted via: CDex 1.51
#
DISCID=170d4014
DTITLE=Marty Robbins - Essential Gunfighter Ballads And More CD1
DYEAR=1900
DGENRE=Country
TTITLE0=El Paso
TTITLE1=Cool Water
TTITLE2=Big Iron
TTITLE3=Billy The Kid
TTITLE4=They're Hanging Me Tonight
TTITLE5=A Hundred And Sixty Acres
TTITLE6=The Strawberry Roan
TTITLE7=In The Valley
TTITLE8=The Master's Call
TTITLE9=Running Gun
TTITLE10=The Little Green Valley
TTITLE11=Utah Carol
TTITLE12=Tomorrow You'll Be Gone
TTITLE13=I'll Go On Alone
TTITLE14=I Couldn't Keep from Crying
TTITLE15=Pain And Misery
TTITLE16=Lovesick Blues
TTITLE17=I'm So Lonesome I Could Cry
TTITLE18=Moanin' The Blues
TTITLE19=Marty Robbins - Have I Told You Lately That I Love You
EXTD=
EXTT0=
EXTT1=
EXTT2=
EXTT3=
EXTT4=
EXTT5=
EXTT6=
EXTT7=
EXTT8=
EXTT9=
EXTT10=
EXTT11=
EXTT12=
EXTT13=
EXTT14=
EXTT15=
EXTT16=
EXTT17=
EXTT18=
EXTT19=
PLAYORDER=
